<?xml version="1.0" standalone="no"?><!DOCTYPE svg PUBLIC "-//W3C//DTD SVG 1.1//EN" "http://www.w3.org/Graphics/SVG/1.1/DTD/svg11.dtd"><svg t="1574237113237" class="icon" viewBox="0 0 1113 1024" version="1.1" xmlns="http://www.w3.org/2000/svg" p-id="1440" xmlns:xlink="http://www.w3.org/1999/xlink" width="217.3828125" height="200"><defs><style type="text/css"></style></defs><path d="M328.777592 1022.61444c-32.439237 0-62.764424-7.87055-89.632854-23.797344-40.881152-24.183015-69.277982-64.678496-82.147974-116.87267-20.340587-83.490682 1.528401-188.46468 58.921995-280.782948a469.46189 469.46189 0 0 1 81.419484-98.646134l2.11405-3.071086 3.642451-2.114049c46.251981-40.881152 97.303426-67.935275 147.397835-78.562661 76.148644-22.383216 151.383105-20.269166 223.93215 6.784957 79.46256 25.340029 155.696909 89.247182 209.005245 175.608973 57.13648 92.503962 79.262582 197.292266 58.921996 280.782948-12.855708 52.208459-41.266823 92.689655-81.947997 116.87267-33.010601 19.612097-72.706171 27.268385-114.772905 22.268944-37.624372-4.413793-77.34851-19.183573-114.958598-42.609531-38.567124-16.126772-95.575047-29.368151-153.540007-5.185135a351.089387 351.089387 0 0 1-42.60953 23.983037c-36.267381 16.88383-72.163375 25.325745-105.702489 25.325745z" p-id="1441"></path><path d="M344.133021 553.566789a396.570026 396.570026 0 0 0-69.23513 84.062047c-47.594688 76.962839-66.592568 161.981922-50.48008 227.817431 5.713648 23.61165 19.197857 55.465238 50.094409 73.891753 34.153331 20.340587 80.60529 18.569356 130.699698-4.799464a278.540341 278.540341 0 0 0 36.267381-20.526281l2.685415-1.728378 2.856824-1.157014c82.847896-36.081687 161.781944-17.140944 213.604731 4.985158l2.499721 1.157014 2.299744 1.528401c59.107689 37.424395 118.98672 45.094967 159.882156 20.911951 30.896552-18.426515 44.280772-50.280103 50.094409-73.691775 16.112487-65.706952-2.685415-150.854592-50.48008-227.817431-44.366477-71.577726-108.645017-126.085928-171.99509-146.240821l-1.728379-0.571365c-58.722018-22.068966-120.143734-23.797344-182.136815-5.185136l-1.528401 0.385671-1.542685 0.385672c-38.181453 7.670572-79.448276 29.996652-116.486999 62.378752l-1.914072 1.728379-2.499721 2.499721zM138.184578 560.665997c-38.181453 0-74.848789-19.383551-100.760183-53.151211-24.183015-31.425064-37.424395-73.134695-37.424395-116.701261s13.241379-85.21906 37.424395-116.686977C63.335788 240.358889 100.003125 220.975338 138.184578 220.975338s74.848789 19.383551 100.760183 53.15121c24.183015 31.525053 37.381542 73.120411 37.381542 116.686977s-13.241379 85.21906-37.424395 116.701261c-25.911394 33.581966-62.564446 53.151211-100.760183 53.151211z" p-id="1442"></path><path d="M138.184578 290.053342c-37.424395 0-68.892311 46.066287-68.892312 100.57449s31.667894 100.574489 68.892312 100.574489 68.906595-46.066287 68.906595-100.574489-31.425064-100.574489-68.906595-100.57449zM975.548265 560.466019h-34.73898v-5.370829c-25.140051-7.87055-48.166053-24.382993-66.221181-47.794666-24.168731-31.667894-37.41011-73.091842-37.41011-116.686976s13.241379-85.21906 37.424394-116.686977c25.911394-33.781944 62.57873-53.165495 100.760183-53.165495s74.848789 19.383551 100.760183 53.165495c24.183015 31.425064 37.424395 73.120411 37.424395 116.686977s-13.241379 85.21906-37.424395 116.686976c-25.711416 33.781944-62.378752 53.165495-100.574489 53.165495z" p-id="1443"></path><path d="M975.548265 289.867649c-37.424395 0-68.892311 46.066287-68.892311 100.574489s31.667894 100.560205 68.892311 100.560205h0.771342c37.038723-0.571365 68.135253-46.451958 68.135253-100.560205 0-54.508202-31.667894-100.574489-68.892311-100.574489zM743.702712 340.533423c-38.195737 0-74.848789-19.383551-100.760183-53.165495-24.183015-31.667894-37.424395-73.120411-37.424395-116.686977s13.241379-85.21906 37.424395-116.686977C668.853923 20.21203 705.506975 0.828479 743.702712 0.828479s74.848789 19.383551 100.760183 53.165495c24.183015 31.425064 37.424395 73.120411 37.424394 116.686977s-13.241379 85.21906-37.424394 116.686977c-25.911394 33.781944-62.750139 53.165495-100.760183 53.165495z" p-id="1444"></path><path d="M743.702712 70.106461c-37.424395 0-68.892311 46.066287-68.892311 100.57449s31.667894 100.574489 68.892311 100.574489 68.892311-46.066287 68.892311-100.574489-31.667894-100.574489-68.892311-100.57449zM389.99933 340.533423c-38.195737 0-74.848789-19.383551-100.760183-53.165495-24.183015-31.667894-37.424395-73.120411-37.424394-116.686977s13.241379-85.21906 37.424394-116.686977C315.150541 20.21203 351.817877 0.828479 389.99933 0.828479s74.848789 19.383551 100.760183 53.165495c24.183015 31.425064 37.424395 73.120411 37.424395 116.686977s-13.3128 85.204776-37.424395 116.686977c-25.911394 33.781944-62.564446 53.165495-100.760183 53.165495z" p-id="1445"></path><path d="M389.99933 70.106461c-37.424395 0-68.906595 46.066287-68.906595 100.57449s31.425064 100.574489 68.906595 100.574489 68.906595-46.066287 68.906596-100.574489-31.425064-100.574489-68.906596-100.57449z" p-id="1446"></path></svg>