<?xml version="1.0" standalone="no"?><!DOCTYPE svg PUBLIC "-//W3C//DTD SVG 1.1//EN" "http://www.w3.org/Graphics/SVG/1.1/DTD/svg11.dtd"><svg t="1574237196396" class="icon" viewBox="0 0 1024 1024" version="1.1" xmlns="http://www.w3.org/2000/svg" p-id="8873" xmlns:xlink="http://www.w3.org/1999/xlink" width="200" height="200"><defs><style type="text/css"></style></defs><path d="M672.3648 768c-64 6.4-134.4 6.4-192-6.4-44.8-6.4-89.6-19.2-134.4-38.4-32-12.8-57.6-32-76.8-44.8l390.4-396.8c12.8-12.8 12.8-19.2 12.8-38.4 0-12.8-6.4-25.6-12.8-38.4-128-134.4-326.4-198.4-512-166.4h-6.4C77.1648 51.2 19.5648 102.4 6.7648 172.8-12.4352 320 6.7648 473.6 96.3648 595.2c38.4 57.6 140.8 153.6 217.6 192 44.8 19.2 102.4 38.4 160 44.8 38.4 6.4 83.2 12.8 134.4 12.8 25.6 0 57.6 0 83.2-6.4 19.2-6.4 32-19.2 32-38.4-12.8-19.2-32-32-51.2-32zM256.3648 358.4c-38.4 0-70.4-32-70.4-76.8 0-25.6 12.8-51.2 38.4-64 19.2-12.8 51.2-12.8 70.4 0 25.6 19.2 38.4 38.4 38.4 64 0 44.8-32 76.8-76.8 76.8z m761.6 358.4c-12.8-12.8-38.4-12.8-44.8 0L832.3648 857.6c12.8-89.6 12.8-179.2-6.4-262.4-12.8-102.4-38.4-179.2-64-224-6.4-19.2-32-25.6-44.8-19.2-19.2 6.4-25.6 32-19.2 44.8 19.2 44.8 44.8 115.2 57.6 204.8 12.8 115.2 12.8 230.4-12.8 352-6.4 12.8 6.4 32 19.2 38.4 6.4 6.4 12.8 6.4 19.2 6.4 6.4 0 19.2-6.4 25.6-12.8L1024.3648 768c0-12.8 0-38.4-6.4-51.2z m0 0" p-id="8874"></path></svg>